<?xml version="1.0" encoding="UTF-8"?>
<svg xmlns="http://www.w3.org/2000/svg" viewBox="0 0 123 54.64">
  <defs>
    <linearGradient id="agRed" x1="0" x2="70" y1="27.32" y2="27.32" gradientUnits="userSpaceOnUse">
      <stop offset="0" stop-color="hsl(354,68%,49%)"/>
      <stop offset="0.43" stop-color="hsl(354,68%,45%)"/>
      <stop offset="0.92" stop-color="hsl(353,70%,32%)"/>
      <stop offset="1" stop-color="hsl(353,70%,29%)"/>
    </linearGradient>
    <linearGradient id="agTeal" x1="66" x2="123" y1="27.32" y2="27.32" gradientUnits="userSpaceOnUse">
      <stop offset="0" stop-color="hsl(194,90%,26%)"/>
      <stop offset="0.31" stop-color="hsl(200,65%,27%)"/>
      <stop offset="0.68" stop-color="hsl(208,45%,27%)"/>
      <stop offset="1" stop-color="hsl(213,38%,28%)"/>
    </linearGradient>
  </defs>
  <path fill="url(#agRed)" d="M39.4223 37.8645C35.9072 37.8645 32.3921 37.8645 28.8769 37.8645C26.2617 41.463 23.6464 45.0615 21.0311 48.66C37.3091 48.66 53.5871 48.66 69.8651 48.66C61.1194 36.0023 52.3737 23.3445 43.628 10.6868C42.7064 9.3492 41.5891 8.2292 40.2705 7.3293C38.952 6.4295 37.31 5.9809 35.3417 5.9809C33.3735 5.9809 31.5955 6.4621 30.258 7.4245C28.9177 8.3868 27.8113 9.4743 26.9304 10.6895C17.9546 23.3463 8.9787 36.0032 0.0028 48.66C5.1292 48.66 10.2555 48.66 15.3819 48.66C21.9518 39.3706 28.5217 30.0812 35.0916 20.7918C37.6027 24.4954 40.1138 28.199 42.6248 31.9026C43.3371 32.9058 44.0793 33.9851 44.8541 35.135C45.6289 36.285 46.3085 37.2392 46.893 37.9923C45.8899 37.908 44.7046 37.8672 43.3453 37.8672C42.0376 37.8672 40.73 37.8672 39.4223 37.8645Z"/>
  <path fill="url(#agTeal)" d="M86.0488 31.4976C93.4072 31.4976 100.7655 31.4976 108.1238 31.4976C108.1238 33.5601 108.1238 35.6226 108.1238 37.6851C102.7428 37.6851 97.3618 37.6851 91.9808 37.6851C90.1512 37.6851 88.4711 37.4404 86.9405 36.951C85.41 36.4617 84.0806 35.7712 82.9524 34.8768C81.8242 33.9851 80.9515 32.9112 80.3371 31.6552C79.72 30.402 79.4128 29.0073 79.4128 27.4768C79.4128 25.9462 79.7308 24.5516 80.3697 23.2983C81.0086 22.045 81.8894 20.9494 83.0176 20.0115C84.1431 19.0763 85.4725 18.3532 87.0058 17.8421C88.5364 17.331 90.1947 17.0754 91.9835 17.0754C99.321 17.0754 106.6585 17.0754 113.9959 17.0754C116.8459 13.3755 119.6959 9.6755 122.5459 5.9755C112.3593 5.9755 102.1728 5.9755 91.9862 5.9755C88.2862 5.9755 84.8608 6.4757 81.7127 7.4734C78.5646 8.4738 75.8541 9.8984 73.5787 11.747C71.3032 13.5984 69.5171 15.8086 68.2203 18.3831C66.9236 20.9576 66.2738 23.7958 66.2738 26.9004C66.2738 30.0051 66.9236 32.8868 68.2203 35.5455C69.5171 38.2043 71.3032 40.5015 73.5787 42.4372C75.8541 44.3728 78.5646 45.8925 81.7127 46.9989C84.8608 48.1054 88.2835 48.6573 91.9862 48.6573C101.7478 48.6573 111.5093 48.6573 121.2709 48.6573C121.2709 39.7675 121.2709 30.8777 121.2709 21.9879C112.1681 21.9879 103.0654 21.9879 93.9627 21.9879C91.3256 25.1569 88.6886 28.3259 86.0488 31.4976Z"/>
</svg>
