<?xml version="1.0" encoding="UTF-8"?> <svg xmlns="http://www.w3.org/2000/svg" viewBox="0 0 228.00 54.64" data-guides="{&quot;vertical&quot;:[],&quot;horizontal&quot;:[]}"><defs><linearGradient id="tSvgGradient167197b88dc" x1="0.0029296875" x2="69.86523138826851" y1="27.319196597242808" y2="27.319196597242808" fill="rgb(0, 0, 0)" data-name="Безымянный градиент 35" gradientUnits="userSpaceOnUse"><stop offset="0" stop-color="hsl(353.988,68%,49.02%)" stop-opacity="1" transform="translate(-5140, -4660)"></stop><stop offset="0.21" stop-color="hsl(354.204,68.03%,47.839999999999996%)" stop-opacity="1" transform="translate(-5140, -4660)"></stop><stop offset="0.43" stop-color="hsl(353.844,68.42%,44.71%)" stop-opacity="1" transform="translate(-5140, -4660)"></stop><stop offset="0.67" stop-color="hsl(353.484,69%,39.22%)" stop-opacity="1" transform="translate(-5140, -4660)"></stop><stop offset="0.92" stop-color="hsl(352.62,70.37%,31.759999999999998%)" stop-opacity="1" transform="translate(-5140, -4660)"></stop><stop offset="1" stop-color="hsl(352.584,70.47%,29.220000000000002%)" stop-opacity="1" transform="translate(-5140, -4660)"></stop></linearGradient><linearGradient id="tSvgGradient17675975f35" x1="66.27120188767094" x2="122.54316890232803" y1="27.31912806118089" y2="27.31912806118089" fill="rgb(0, 0, 0)" data-name="Безымянный градиент 17" gradientUnits="userSpaceOnUse"><stop offset="0" stop-color="hsl(194.364,89.63%,26.47%)" stop-opacity="1" transform="translate(-5140, -4660)"></stop><stop offset="0.31" stop-color="hsl(199.548,64.96%,26.86%)" stop-opacity="1" transform="translate(-5140, -4660)"></stop><stop offset="0.68" stop-color="hsl(207.612,45.32%,27.250000000000004%)" stop-opacity="1" transform="translate(-5140, -4660)"></stop><stop offset="1" stop-color="hsl(212.832,37.59%,27.650000000000002%)" stop-opacity="1" transform="translate(-5140, -4660)"></stop></linearGradient></defs><path fill="url(#tSvgGradient167197b88dc)" stroke="none" fill-opacity="1" stroke-width="0" stroke-opacity="1" class="cls-3" id="tSvgfc9487ccd4" title="Path 1" d="M39.4223 37.8645C35.9072 37.8645 32.3921 37.8645 28.8769 37.8645C26.2617 41.463 23.6464 45.0615 21.0311 48.66C37.3091 48.66 53.5871 48.66 69.8651 48.66C61.1194 36.0023 52.3737 23.3445 43.628 10.6868C42.7064 9.3492 41.5891 8.2292 40.2705 7.3293C38.952 6.4295 37.31 5.9809 35.3417 5.9809C33.3735 5.9809 31.5955 6.4621 30.258 7.4245C28.9177 8.3868 27.8113 9.4743 26.9304 10.6895C17.9546 23.3463 8.9787 36.0032 0.0028 48.66C5.1292 48.66 10.2555 48.66 15.3819 48.66C21.9518 39.3706 28.5217 30.0812 35.0916 20.7918C37.6027 24.4954 40.1138 28.199 42.6248 31.9026C43.3371 32.9058 44.0793 33.9851 44.8541 35.135C45.6289 36.285 46.3085 37.2392 46.893 37.9923C45.8899 37.908 44.7046 37.8672 43.3453 37.8672C42.0376 37.8672 40.73 37.8672 39.4223 37.8645Z"></path><path fill="url(#tSvgGradient17675975f35)" stroke="none" fill-opacity="1" stroke-width="0" stroke-opacity="1" class="cls-2" id="tSvg47c7830a95" title="Path 2" d="M86.0488 31.4976C93.4072 31.4976 100.7655 31.4976 108.1238 31.4976C108.1238 33.5601 108.1238 35.6226 108.1238 37.6851C102.7428 37.6851 97.3618 37.6851 91.9808 37.6851C90.1512 37.6851 88.4711 37.4404 86.9405 36.951C85.41 36.4617 84.0806 35.7712 82.9524 34.8768C81.8242 33.9851 80.9515 32.9112 80.3371 31.6552C79.72 30.402 79.4128 29.0073 79.4128 27.4768C79.4128 25.9462 79.7308 24.5516 80.3697 23.2983C81.0086 22.045 81.8894 20.9494 83.0176 20.0115C84.1431 19.0763 85.4725 18.3532 87.0058 17.8421C88.5364 17.331 90.1947 17.0754 91.9835 17.0754C99.321 17.0754 106.6585 17.0754 113.9959 17.0754C116.8459 13.3755 119.6959 9.6755 122.5459 5.9755C112.3593 5.9755 102.1728 5.9755 91.9862 5.9755C88.2862 5.9755 84.8608 6.4757 81.7127 7.4734C78.5646 8.4738 75.8541 9.8984 73.5787 11.747C71.3032 13.5984 69.5171 15.8086 68.2203 18.3831C66.9236 20.9576 66.2738 23.7958 66.2738 26.9004C66.2738 30.0051 66.9236 32.8868 68.2203 35.5455C69.5171 38.2043 71.3032 40.5015 73.5787 42.4372C75.8541 44.3728 78.5646 45.8925 81.7127 46.9989C84.8608 48.1054 88.2835 48.6573 91.9862 48.6573C101.7478 48.6573 111.5093 48.6573 121.2709 48.6573C121.2709 39.7675 121.2709 30.8777 121.2709 21.9879C112.1681 21.9879 103.0654 21.9879 93.9627 21.9879C91.3256 25.1569 88.6886 28.3259 86.0488 31.4976Z"></path><path fill="rgb(188, 188, 189)" stroke="none" fill-opacity="1" stroke-width="0" stroke-opacity="1" class="cls-1" id="tSvgb42a2fcd0e" title="Path 3" d="M144.6127 15.2486C145.5696 15.2486 146.5265 15.2486 147.4835 15.2486C147.4835 12.9622 147.4835 10.6759 147.4835 8.3896C148.5872 8.3896 149.691 8.3896 150.7947 8.3896C151.4137 7.5858 152.0326 6.782 152.6515 5.9782C149.1409 5.9782 145.6303 5.9782 142.1197 5.9782C141.5008 6.782 140.8818 7.5858 140.2629 8.3896C141.7128 8.3896 143.1627 8.3896 144.6127 8.3896C144.6127 10.6759 144.6127 12.9622 144.6127 15.2486Z"></path><path fill="rgb(188, 188, 189)" stroke="none" fill-opacity="1" stroke-width="0" stroke-opacity="1" class="cls-1" id="tSvgc19107c5ae" title="Path 4" d="M160.6333 8.3896C161.1335 8.3896 161.5195 8.4793 161.7968 8.6587C162.0741 8.8381 162.2128 9.11 162.2128 9.4688C162.2128 9.7924 162.0605 10.0452 161.7561 10.2328C161.4516 10.4176 161.0764 10.5101 160.6333 10.5101C157.9446 10.5101 155.2559 10.5101 152.5672 10.5101C152.5672 12.0896 152.5672 13.6691 152.5672 15.2486C153.5233 15.2486 154.4793 15.2486 155.4354 15.2486C155.4354 14.4312 155.4354 13.6138 155.4354 12.7964C156.9043 12.7964 158.3732 12.7964 159.8422 12.7964C160.5309 13.6138 161.2196 14.4312 161.9083 15.2486C163.1879 15.2486 164.4674 15.2486 165.747 15.2486C165.1788 14.6477 164.6106 14.0469 164.0424 13.4461C163.7189 13.1226 163.4606 12.8698 163.2649 12.6822C163.0719 12.4973 162.8952 12.3451 162.7375 12.2255C163.1154 12.1521 163.4552 12.0243 163.7569 11.8449C164.056 11.6655 164.3115 11.4453 164.5182 11.187C164.7275 10.9287 164.8852 10.6378 164.9966 10.3143C165.1081 9.9908 165.1625 9.6483 165.1625 9.2894C165.1625 8.6234 165.0129 8.0796 164.7112 7.6555C164.4121 7.2314 164.0288 6.8916 163.5666 6.6442C163.1045 6.3941 162.5907 6.2228 162.0279 6.125C161.4652 6.0271 160.9187 5.9782 160.3913 5.9782C158.405 5.9782 156.4186 5.9782 154.4322 5.9782C153.8087 6.782 153.1853 7.5858 152.5618 8.3896C155.2505 8.3896 157.9392 8.3896 160.6279 8.3896C160.6297 8.3896 160.6315 8.3896 160.6333 8.3896Z"></path><path fill="rgb(188, 188, 189)" stroke="none" fill-opacity="1" stroke-width="0" stroke-opacity="1" class="cls-1" id="tSvg50d6d5e019" title="Path 5" d="M168.1638 14.3487C168.6857 14.6994 169.3491 14.9631 170.1538 15.1398C170.9585 15.3165 171.9181 15.4035 173.0355 15.4035C176.8877 15.4035 178.8152 14.0034 178.8152 11.2033C178.8152 9.4616 178.8152 7.7199 178.8152 5.9782C177.8546 5.9782 176.8941 5.9782 175.9335 5.9782C175.9335 7.7199 175.9335 9.4616 175.9335 11.2033C175.9335 11.5268 175.8846 11.8041 175.7867 12.0352C175.6888 12.2663 175.5311 12.4566 175.3082 12.6034C175.0853 12.7502 174.7917 12.8589 174.422 12.9214C174.0522 12.9867 173.5901 13.0193 173.0355 13.0193C172.296 13.0193 171.6952 12.9894 171.2331 12.9296C170.7709 12.8698 170.412 12.7665 170.1592 12.6251C169.9064 12.481 169.7324 12.2962 169.64 12.0651C169.5475 11.834 169.5013 11.5486 169.5013 11.206C169.5013 9.4643 169.5013 7.7226 169.5013 5.9809C168.5498 5.9809 167.5983 5.9809 166.6468 5.9809C166.6468 7.7226 166.6468 9.4643 166.6468 11.206C166.6468 11.9074 166.7691 12.5218 167.0138 13.0411C167.2585 13.563 167.6418 14.0007 168.1638 14.3487Z"></path><path fill="rgb(188, 188, 189)" stroke="none" fill-opacity="1" stroke-width="0" stroke-opacity="1" class="cls-1" id="tSvg177120d945a" title="Path 6" d="M181.7322 13.8974C182.227 14.3188 182.8142 14.6477 183.4993 14.8897C184.1817 15.1289 184.9266 15.2486 185.7313 15.2486C187.2836 15.2486 188.8359 15.2486 190.3882 15.2486C191.0026 14.4538 191.617 13.6591 192.2314 12.8644C190.0647 12.8644 187.898 12.8644 185.7313 12.8644C185.3425 12.8644 184.9837 12.8127 184.652 12.7067C184.3203 12.6007 184.0295 12.4511 183.7848 12.2554C183.5401 12.0624 183.3498 11.8286 183.2166 11.5567C183.0834 11.2849 183.0154 10.9804 183.0154 10.6487C183.0154 10.317 183.0834 10.0126 183.2248 9.7353C183.3634 9.458 183.551 9.2214 183.7929 9.0203C184.0322 8.8218 184.3203 8.6669 184.652 8.5554C184.9837 8.4439 185.3453 8.3896 185.7313 8.3896C187.2836 8.3896 188.8359 8.3896 190.3882 8.3896C191.0026 7.5858 191.617 6.782 192.2314 5.9782C190.0647 5.9782 187.898 5.9782 185.7313 5.9782C184.9266 5.9782 184.1844 6.0869 183.4993 6.3044C182.8142 6.5219 182.227 6.8318 181.7322 7.2314C181.2375 7.6338 180.8487 8.115 180.5687 8.6723C180.286 9.2323 180.1446 9.8494 180.1446 10.5237C180.1446 11.1979 180.286 11.8231 180.5687 12.4022C180.8487 12.9813 181.2375 13.4788 181.7322 13.8974Z"></path><path fill="rgb(188, 188, 189)" stroke="none" fill-opacity="1" stroke-width="0" stroke-opacity="1" class="cls-1" id="tSvge5bbf86fec" title="Path 7" d="M196.1081 12.5898C196.1081 12.3669 196.1027 12.1439 196.0945 11.9183C196.0864 11.6926 196.0755 11.4724 196.0674 11.2604C196.225 11.4181 196.4289 11.6111 196.6845 11.8422C196.94 12.0732 197.307 12.3968 197.7855 12.8127C198.7189 13.6256 199.6523 14.4384 200.5857 15.2513C202.0319 15.2513 203.4782 15.2513 204.9245 15.2513C203.645 14.2309 202.3654 13.2105 201.0859 12.1901C200.4851 11.7008 199.9957 11.3175 199.6178 11.0402C199.24 10.7629 198.9164 10.5318 198.6473 10.3469C198.7941 10.2545 198.9463 10.1566 199.0959 10.0561C199.2481 9.9555 199.4167 9.8386 199.6015 9.7108C199.7864 9.5803 199.9957 9.4308 200.2322 9.2541C200.4688 9.0801 200.7379 8.8762 201.0424 8.6451C202.225 7.7579 203.4075 6.8708 204.5901 5.9836C203.2046 5.9836 201.819 5.9836 200.4334 5.9836C199.5417 6.7367 198.65 7.4897 197.7583 8.2428C197.3342 8.5935 196.989 8.8925 196.7253 9.1372C196.4616 9.3818 196.2386 9.5885 196.0538 9.7543C196.0728 9.5151 196.0864 9.2541 196.0945 8.9795C196.1027 8.7022 196.1081 8.4195 196.1081 8.134C196.1081 7.4181 196.1081 6.7022 196.1081 5.9863C195.1476 5.9863 194.187 5.9863 193.2264 5.9863C193.2264 9.0765 193.2264 12.1666 193.2264 15.2567C194.187 15.2567 195.1476 15.2567 196.1081 15.2567C196.1081 14.3695 196.1081 13.4824 196.1081 12.5952C196.1081 12.5934 196.1081 12.5916 196.1081 12.5898Z"></path><path fill="rgb(188, 188, 189)" stroke="none" fill-opacity="1" stroke-width="0" stroke-opacity="1" class="cls-1" id="tSvgf4c09e1af7" title="Path 8" d="M211.2969 11.1897C211.0196 11.5404 210.8809 11.9944 210.8809 12.549C210.8809 12.9378 210.938 13.2939 211.0549 13.6228C211.1691 13.9491 211.3703 14.2345 211.6585 14.4738C211.9439 14.7157 212.33 14.9033 212.8166 15.0419C213.3005 15.1806 213.9094 15.2513 214.638 15.2513C216.5737 15.2513 218.5093 15.2513 220.4449 15.2513C221.0548 14.4565 221.6647 13.6618 222.2745 12.8671C221.217 12.8671 220.1595 12.8671 219.102 12.8671C219.102 12.4421 219.102 12.0171 219.102 11.5921C219.6103 11.5921 220.1187 11.5921 220.6271 11.5921C221.121 10.9314 221.6148 10.2708 222.1087 9.6102C219.6004 9.6102 217.092 9.6102 214.5837 9.6102C214.3716 9.6102 214.1867 9.5667 214.0291 9.477C213.8714 9.39 213.7926 9.2242 213.7926 8.9849C213.7926 8.7457 213.8741 8.5962 214.0345 8.5146C214.1976 8.4303 214.3798 8.3896 214.5809 8.3896C215.3014 8.3896 216.0218 8.3896 216.7422 8.3896C217.3566 7.5858 217.971 6.782 218.5854 5.9782C217.2923 5.9782 215.9991 5.9782 214.706 5.9782C214.1514 5.9782 213.6512 6.0325 213.2026 6.1386C212.754 6.2446 212.3707 6.4077 212.0527 6.6252C211.7346 6.8427 211.4899 7.1091 211.3186 7.4299C211.1474 7.748 211.0631 8.1204 211.0631 8.5445C211.0631 8.8218 211.1011 9.0665 211.1746 9.2785C211.248 9.4906 211.3431 9.6782 211.4573 9.8386C211.5715 9.999 211.7074 10.1349 211.8596 10.2409C212.0119 10.3469 212.1723 10.4285 212.3381 10.4829C211.9222 10.6025 211.5742 10.839 211.2969 11.1897ZM214.6217 11.5921C215.3421 11.5921 216.0626 11.5921 216.783 11.5921C216.783 12.0171 216.783 12.4421 216.783 12.8671C216.0626 12.8671 215.3421 12.8671 214.6217 12.8671C214.0318 12.8671 213.7355 12.6496 213.7355 12.2146C213.7355 11.7796 214.0318 11.5921 214.6217 11.5921Z"></path><path fill="rgb(188, 188, 189)" stroke="none" fill-opacity="1" stroke-width="0" stroke-opacity="1" class="cls-1" id="tSvg1edb8d7cc5" title="Path 9" d="M144.6127 31.8782C145.5696 31.8782 146.5265 31.8782 147.4835 31.8782C147.4835 29.5918 147.4835 27.3055 147.4835 25.0192C148.5872 25.0192 149.691 25.0192 150.7947 25.0192C151.4137 24.2154 152.0326 23.4116 152.6515 22.6078C149.1409 22.6078 145.6303 22.6078 142.1197 22.6078C141.5008 23.4116 140.8818 24.2154 140.2629 25.0192C141.7128 25.0192 143.1627 25.0192 144.6127 25.0192C144.6127 27.3055 144.6127 29.5918 144.6127 31.8782Z"></path><path fill="rgb(188, 188, 189)" stroke="none" fill-opacity="1" stroke-width="0" stroke-opacity="1" class="cls-1" id="tSvg1846bfb7f74" title="Path 10" d="M161.7561 26.8624C161.4516 27.0472 161.0764 27.1397 160.6333 27.1397C157.9446 27.1397 155.2559 27.1397 152.5672 27.1397C152.5672 28.7192 152.5672 30.2987 152.5672 31.8782C153.5233 31.8782 154.4793 31.8782 155.4354 31.8782C155.4354 31.0608 155.4354 30.2434 155.4354 29.426C156.9043 29.426 158.3732 29.426 159.8422 29.426C160.5309 30.2434 161.2196 31.0608 161.9083 31.8782C163.1879 31.8782 164.4674 31.8782 165.747 31.8782C165.1788 31.2773 164.6106 30.6765 164.0424 30.0757C163.7189 29.7522 163.4606 29.4994 163.2649 29.3118C163.0719 29.1269 162.8952 28.9747 162.7375 28.8551C163.1154 28.7817 163.4552 28.6539 163.7569 28.4745C164.056 28.2951 164.3115 28.0749 164.5182 27.8166C164.7275 27.5583 164.8852 27.2674 164.9966 26.9439C165.1081 26.6204 165.1625 26.2779 165.1625 25.919C165.1625 25.253 165.0129 24.7092 164.7112 24.2851C164.4121 23.861 164.0288 23.5212 163.5666 23.2738C163.1045 23.0237 162.5907 22.8524 162.0279 22.7546C161.4652 22.6567 160.9187 22.6078 160.3913 22.6078C158.405 22.6078 156.4186 22.6078 154.4322 22.6078C153.8087 23.4116 153.1853 24.2154 152.5618 25.0192C155.2505 25.0192 157.9392 25.0192 160.6279 25.0192C161.1281 25.0192 161.5141 25.1089 161.7914 25.2883C162.0687 25.4677 162.2074 25.7396 162.2074 26.0984C162.2074 26.422 162.0551 26.6748 161.7561 26.8624Z"></path><path fill="rgb(188, 188, 189)" stroke="none" fill-opacity="1" stroke-width="0" stroke-opacity="1" class="cls-1" id="tSvg160d4ce082d" title="Path 11" d="M173.7994 25.726C174.354 26.5434 174.9086 27.3608 175.4632 28.1782C175.6209 28.3984 175.784 28.6376 175.9552 28.8904C176.1265 29.146 176.276 29.3553 176.4065 29.5211C176.1836 29.5021 175.9226 29.494 175.6236 29.494C174.5588 29.494 173.494 29.494 172.4292 29.494C171.852 30.2887 171.2747 31.0834 170.6975 31.8782C174.2915 31.8782 177.8854 31.8782 181.4794 31.8782C179.5483 29.0834 177.6172 26.2887 175.6861 23.494C175.4822 23.1977 175.2375 22.9503 174.9439 22.7519C174.653 22.5534 174.2888 22.4528 173.8565 22.4528C173.4242 22.4528 173.03 22.5588 172.7337 22.7709C172.4374 22.9829 172.1927 23.2249 171.9997 23.4913C170.0179 26.286 168.036 29.0807 166.0542 31.8754C167.186 31.8754 168.3178 31.8754 169.4497 31.8754C170.9005 29.8247 172.3513 27.774 173.7994 25.726Z"></path><path fill="rgb(188, 188, 189)" stroke-width="0" class="cls-1" x="671.45" y="83.16" width="10.55" height="34.1" id="tSvgbb5ca0d60f" title="Rectangle 1" fill-opacity="1" stroke="none" stroke-opacity="1" d="M182.5424 22.6078H185.4105V31.8782H182.5424Z" style="transform-origin: 183.976px 27.243px;"></path><path fill="rgb(188, 188, 189)" stroke="none" fill-opacity="1" stroke-width="0" stroke-opacity="1" class="cls-1" id="tSvg1775250c5dd" title="Path 12" d="M187.1993 22.6078C187.1993 25.6979 187.1993 28.788 187.1993 31.8782C189.9288 31.8782 192.6583 31.8782 195.3877 31.8782C196.0066 31.0834 196.6256 30.2887 197.2445 29.494C194.8522 29.494 192.4598 29.494 190.0674 29.494C190.0674 27.1986 190.0674 24.9032 190.0674 22.6078C189.1114 22.6078 188.1554 22.6078 187.1993 22.6078Z"></path><path fill="rgb(188, 188, 189)" stroke="none" fill-opacity="1" stroke-width="0" stroke-opacity="1" class="cls-1" id="tSvg145529777c2" title="Path 13" d="M207.0858 25.0192C207.7047 24.2154 208.3237 23.4116 208.9426 22.6078C205.3622 22.6078 201.7818 22.6078 198.2015 22.6078C198.2015 25.6979 198.2015 28.788 198.2015 31.8782C201.1765 31.8782 204.1515 31.8782 207.1266 31.8782C207.741 31.0834 208.3554 30.2887 208.9698 29.494C206.3409 29.494 203.712 29.494 201.0832 29.494C201.0832 29.0744 201.0832 28.6548 201.0832 28.2352C202.9825 28.2352 204.8819 28.2352 206.7813 28.2352C207.3305 27.5329 207.8796 26.8306 208.4288 26.1283C205.9802 26.1283 203.5317 26.1283 201.0832 26.1283C201.0832 25.7586 201.0832 25.3889 201.0832 25.0192C203.084 25.0192 205.0849 25.0192 207.0858 25.0192Z"></path><path fill="rgb(188, 188, 189)" stroke="none" fill-opacity="1" stroke-width="0" stroke-opacity="1" class="cls-1" id="tSvg52e54c76ee" title="Path 14" d="M212.7948 29.426C214.2638 29.426 215.7327 29.426 217.2017 29.426C217.8904 30.2434 218.5791 31.0608 219.2678 31.8782C220.5473 31.8782 221.8269 31.8782 223.1064 31.8782C222.5382 31.2773 221.9701 30.6765 221.4019 30.0757C221.0784 29.7522 220.8201 29.4994 220.6244 29.3118C220.4313 29.1269 220.2546 28.9747 220.097 28.8551C220.4748 28.7817 220.8147 28.6539 221.1164 28.4745C221.4155 28.2951 221.671 28.0749 221.8776 27.8166C222.087 27.5583 222.2446 27.2674 222.3561 26.9439C222.4676 26.6204 222.5219 26.2779 222.5219 25.919C222.5219 25.253 222.3724 24.7092 222.0706 24.2851C221.7716 23.861 221.3883 23.5212 220.9261 23.2738C220.464 23.0237 219.9502 22.8524 219.3874 22.7546C218.8247 22.6567 218.2782 22.6078 217.7508 22.6078C215.7644 22.6078 213.7781 22.6078 211.7917 22.6078C211.1682 23.4116 210.5447 24.2154 209.9213 25.0192C212.61 25.0192 215.2986 25.0192 217.9873 25.0192C218.4876 25.0192 218.8736 25.1089 219.1509 25.2883C219.4282 25.4677 219.5668 25.7396 219.5668 26.0984C219.5668 26.422 219.4146 26.6748 219.1101 26.8624C218.8056 27.0472 218.4305 27.1397 217.9873 27.1397C215.2986 27.1397 212.61 27.1397 209.9213 27.1397C209.9213 28.7192 209.9213 30.2987 209.9213 31.8782C210.8773 31.8782 211.8334 31.8782 212.7894 31.8782C212.7894 31.0608 212.7894 30.2434 212.7948 29.426Z"></path><path fill="rgb(188, 188, 189)" stroke="none" fill-opacity="1" stroke-width="0" stroke-opacity="1" class="cls-1" id="tSvg8d1554add7" title="Path 15" d="M151.806 45.9441C151.613 45.7593 151.4363 45.607 151.2786 45.4874C151.6565 45.414 151.9963 45.2862 152.2981 45.1068C152.5971 44.9274 152.8527 44.7072 153.0593 44.4489C153.2686 44.1906 153.4263 43.8998 153.5378 43.5762C153.6492 43.2527 153.7036 42.9102 153.7036 42.5513C153.7036 41.8853 153.5541 41.3416 153.2523 40.9175C152.9506 40.4934 152.57 40.1535 152.1078 39.9061C151.6456 39.656 151.1318 39.4848 150.5691 39.3869C150.0063 39.289 149.4599 39.2401 148.9325 39.2401C146.9461 39.2401 144.9597 39.2401 142.9733 39.2401C142.3499 40.0439 141.7264 40.8477 141.103 41.6515C143.7916 41.6515 146.4803 41.6515 149.169 41.6515C149.6692 41.6515 150.0553 41.7412 150.3326 41.9206C150.6099 42.1 150.7485 42.3719 150.7485 42.7308C150.7485 43.0543 150.5963 43.3071 150.2918 43.4947C149.9873 43.6795 149.6121 43.772 149.169 43.772C146.4803 43.772 143.7916 43.772 141.103 43.772C141.103 45.3515 141.103 46.931 141.103 48.5105C142.059 48.5105 143.015 48.5105 143.9711 48.5105C143.9711 47.6931 143.9711 46.8757 143.9711 46.0583C145.44 46.0583 146.909 46.0583 148.3779 46.0583C149.0666 46.8757 149.7553 47.6931 150.444 48.5105C151.7236 48.5105 153.0031 48.5105 154.2827 48.5105C153.7145 47.9097 153.1463 47.3089 152.5781 46.7081C152.2546 46.3845 151.9963 46.1317 151.806 45.9441Z"></path><path fill="rgb(188, 188, 189)" stroke="none" fill-opacity="1" stroke-width="0" stroke-opacity="1" class="cls-1" id="tSvgcdbfd943be" title="Path 16" d="M158.1947 44.8648C160.0932 44.8648 161.9917 44.8648 163.8902 44.8648C164.4393 44.1625 164.9885 43.4602 165.5376 42.7579C163.09 42.7579 160.6424 42.7579 158.1947 42.7579C158.1947 42.3882 158.1947 42.0185 158.1947 41.6488C160.1947 41.6488 162.1947 41.6488 164.1946 41.6488C164.8136 40.845 165.4325 40.0412 166.0514 39.2374C162.472 39.2374 158.8925 39.2374 155.313 39.2374C155.313 42.3275 155.313 45.4176 155.313 48.5078C158.2871 48.5078 161.2613 48.5078 164.2354 48.5078C164.8498 47.713 165.4642 46.9183 166.0786 46.1236C163.4507 46.1236 160.8227 46.1236 158.1947 46.1236C158.1947 45.704 158.1947 45.2844 158.1947 44.8648Z"></path><path fill="rgb(188, 188, 189)" stroke="none" fill-opacity="1" stroke-width="0" stroke-opacity="1" class="cls-1" id="tSvg168f50509fb" title="Path 17" d="M175.4197 44.6827C173.5257 42.9827 171.6318 41.2827 169.7378 39.5826C169.5068 39.3706 169.3001 39.2347 169.1207 39.1748C168.9413 39.115 168.7619 39.0851 168.5879 39.0851C168.384 39.0851 168.1882 39.1178 167.9979 39.183C167.8076 39.2482 167.6418 39.3488 167.4977 39.4875C167.3536 39.6261 167.2395 39.8056 167.1525 40.0285C167.0655 40.2514 167.0193 40.5151 167.0193 40.8196C167.0193 43.3832 167.0193 45.9468 167.0193 48.5105C167.8874 48.5105 168.7555 48.5105 169.6237 48.5105C169.6237 46.6954 169.6237 44.8803 169.6237 43.0651C171.5176 44.7652 173.4116 46.4652 175.3055 48.1652C175.5284 48.3773 175.7269 48.5132 175.909 48.573C176.0885 48.6328 176.2706 48.6627 176.4555 48.6627C176.6594 48.6627 176.8578 48.6301 177.0508 48.5648C177.2466 48.4996 177.4124 48.3963 177.5565 48.2522C177.7006 48.1081 177.8148 47.926 177.9018 47.7058C177.9888 47.4828 178.0323 47.2219 178.0323 46.9147C178.0323 44.3556 178.0323 41.7965 178.0323 39.2374C177.1596 39.2374 176.2869 39.2374 175.4143 39.2374C175.4143 41.0525 175.4143 42.8676 175.4143 44.6827C175.4161 44.6827 175.4179 44.6827 175.4197 44.6827Z"></path><path fill="rgb(188, 188, 189)" stroke="none" fill-opacity="1" stroke-width="0" stroke-opacity="1" class="cls-1" id="tSvg151116692da" title="Path 18" d="M191.2446 39.2374C187.734 39.2374 184.2234 39.2374 180.7128 39.2374C180.0938 40.0412 179.4749 40.845 178.856 41.6488C180.3068 41.6488 181.7576 41.6488 183.2084 41.6488C183.2084 43.9351 183.2084 46.2214 183.2084 48.5078C184.1645 48.5078 185.1205 48.5078 186.0766 48.5078C186.0766 46.2214 186.0766 43.9351 186.0766 41.6488C187.1803 41.6488 188.284 41.6488 189.3878 41.6488C190.0067 40.845 190.6257 40.0412 191.2446 39.2374Z"></path><path fill="rgb(188, 188, 189)" stroke="none" fill-opacity="1" stroke-width="0" stroke-opacity="1" class="cls-1" id="tSvgd45da6087" title="Path 19" d="M197.3641 39.3842C197.0732 39.1857 196.7089 39.0851 196.2767 39.0851C195.8444 39.0851 195.4502 39.1912 195.1539 39.4032C194.8576 39.6153 194.6129 39.8572 194.4199 40.1236C192.438 42.9183 190.4562 45.713 188.4743 48.5078C189.6062 48.5078 190.738 48.5078 191.8699 48.5078C193.3207 46.457 194.7715 44.4063 196.2223 42.3556C196.7769 43.173 197.3315 43.9904 197.8861 44.8078C198.0438 45.028 198.2069 45.2672 198.3782 45.52C198.5494 45.7756 198.699 45.9849 198.8294 46.1507C198.6065 46.1317 198.3455 46.1236 198.0465 46.1236C196.9817 46.1236 195.9169 46.1236 194.8522 46.1236C194.2749 46.9183 193.6977 47.713 193.1204 48.5078C196.7144 48.5078 200.3084 48.5078 203.9023 48.5078C201.9712 45.713 200.0401 42.9183 198.109 40.1236C197.9051 39.8273 197.6605 39.5799 197.3641 39.3842Z"></path><path fill="rgb(188, 188, 189)" stroke="none" fill-opacity="1" stroke-width="0" stroke-opacity="1" class="cls-1" id="tSvg43f8209d4f" title="Path 20" d="M207.7926 39.2374C206.8357 39.2374 205.8787 39.2374 204.9218 39.2374C204.9218 42.3275 204.9218 45.4176 204.9218 48.5078C207.6522 48.5078 210.3825 48.5078 213.1129 48.5078C213.7318 47.713 214.3508 46.9183 214.9697 46.1236C212.5773 46.1236 210.185 46.1236 207.7926 46.1236C207.7926 43.8282 207.7926 41.5328 207.7926 39.2374Z"></path><path fill="rgb(188, 188, 189)" stroke="none" fill-opacity="1" stroke-width="0" stroke-opacity="1" class="cls-1" id="tSvgbabab0b18a" title="Path 22" d="M133.1511 2.9442C132.8167 3.3683 132.4823 3.7924 132.1479 4.2165C132.1479 21.0237 132.1479 37.831 132.1479 54.6382C133.2571 53.3133 134.3663 51.9885 135.4755 50.6636C135.4755 33.7757 135.4755 16.8879 135.4755 0C134.7007 0.9814 133.9259 1.9628 133.1511 2.9442Z"></path></svg> 